<svg id="Capa_1" style="enable-background:new 0 0 480 480;" version="1.1"
     viewBox="0 0 480 480" x="0px" xml:space="preserve"
     xmlns="http://www.w3.org/2000/svg" xmlns:xlink="http://www.w3.org/1999/xlink" y="0px">
                                    <g>
                                        <g>
                                            <path d="M212.0010071,31.9999943c-13.2550049,0-24,10.744997-24,23.9999981c0.0140076,13.2490005,10.7510071,23.9860001,24,24
                                                c13.2550049,0,24-10.7450027,24-24S225.2559967,31.9999943,212.0010071,31.9999943z M212.0010071,63.9999924
                                                c-4.4179993,0-8-3.5820007-8-8c0.0059967-4.4160004,3.5839996-7.9939995,8-8c4.4179993,0,8,3.5820007,8,8
                                                S216.4190063,63.9999924,212.0010071,63.9999924z"/>
                                        </g>
                                    </g>
    <g>
                                        <g>
                                            <path d="M340.0010071,127.9999924h-256c-4.4179993,0-8,3.5820084-8,8.0000076v176c0,4.4179993,3.5820007,8,8,8h256
                                                c4.4179993,0,8-3.5820007,8-8V136C348.0010071,131.5820007,344.4190063,127.9999924,340.0010071,127.9999924z M252.0010071,304
                                                h-80v-40.7810059C172.0140076,250.401001,182.4020081,240.0130005,195.2200012,240h33.5630035
                                                c12.8179932,0.0130005,23.2059937,10.401001,23.2189941,23.2189941V304H252.0010071z M188.0010071,200
                                                c0-13.2550049,10.7449951-24,24-24s24,10.7449951,24,24c-0.0140076,13.2489929-10.7510071,23.9859924-24,24
                                                C198.7460022,224,188.0010071,213.2550049,188.0010071,200z M332.0010071,304h-64v-40.7810059
                                                c-0.052002-16.5789948-10.5409851-31.3289948-26.1840057-36.8209991
                                                c14.727005-16.4669952,13.3159943-41.7550049-3.151001-56.4819946
                                                c-16.4669952-14.727005-41.7550049-13.3159943-56.4819946,3.151001c-13.5789948,15.1840057-13.5789948,38.1470032,0,53.3310089
                                                c-15.6430054,5.4929962-26.1309967,20.2420044-26.1829987,36.8209839V304h-64V144h240V304z"/>
                                        </g>
                                    </g>

    <g>
                                        <g>
                                            <rect height="16" width="120.0000076" x="76.0009995" y="336"/>
                                        </g>
                                    </g>

    <g>
                                        <g>
                                          <rect height="16" width="48" x="212.0010071" y="336"/>
                                        </g>
                                    </g>

    <g>
                                        <g>
                                            <rect height="16" width="192" x="76.0009995" y="384"/>
                                        </g>
                                    </g>

    <g>
                                        <g>
                                            <rect height="16" width="32" x="276.0010071" y="336"/>
                                        </g>
                                    </g>

    <g>
                                        <g>
                                            <path d="M449.6570129,330.3439941l-24-24c-3.1210022-3.1239929-8.1830139-3.1260071-11.3070068-0.0050049
                                                c-0.2109985,0.2109985-0.4089966,0.4330139-0.5950012,0.6650085l-17.7539978,22.1910095V55.9999924c0-4.4179993-3.5820007-8-8-8
                                                H268.9500122l6.9259949-38.5859985c0.7810059-4.3490005-2.1119995-8.5080004-6.4620056-9.2880001
                                                c-0.4660034-0.0840013-0.9389954-0.1260014-1.4129944-0.1260014h-112c-4.4190063,0-8.0010071,3.582-8.0010071,8.0010004
                                                c0,0.474,0.0420074,0.9469995,0.1260071,1.4130001l6.9259949,38.5859985H36.0009995c-4.4179993,0-8,3.5820007-8,8v416
                                                c0,4.4179993,3.5820007,8,8,8h352c4.4179993,0,8-3.5820007,8-8v-66.8890076l54.105011-63.9429932
                                                C452.7940063,337.9920044,452.5979919,333.2860107,449.6570129,330.3439941z M258.4379883,15.9999943l-14.3589935,80h-64.1559906
                                                l-14.3589935-80H258.4379883z M380.0010071,464h-336v-400h113.9219971l7.4329987,41.4140015
                                                c0.6840057,3.8130035,4.0019989,6.586998,7.875,6.5859985h77.5390015
                                                c3.8739929,0.0009995,7.1909943-2.7730026,7.8750153-6.5859985l7.4329834-41.4140015H380v285.1950073l-24.6640015,30.82901
                                                l-17.6799927-17.6799927c-3.1220093-3.1239929-8.1860046-3.125-11.3089905-0.0029907
                                                c-0.0010071,0.0010071-0.0020142,0.0020142-0.0029907,0.0029907l-24,24
                                                c-3.1239929,3.1220093-3.125,8.1860046-0.0029907,11.3089905c0.0010071,0.0010071,0.0020142,0.0020142,0.0029907,0.0029907l48,48
                                                c1.5,1.5010071,3.5350037,2.3439941,5.6560059,2.3439941l0.3320007-0.0079956
                                                c2.2340088-0.0929871,4.3280029-1.1170044,5.7730103-2.8240051l17.894989-21.1480103V464H380.0010071z M355.5090027,428.1950073
                                                L319.3129883,392l12.6879883-12.6879883l18.3439941,18.3439941c1.6149902,1.598999,3.8280029,2.4450073,6.0979919,2.3320007
                                                c2.2730103-0.1260071,4.3840027-1.2139893,5.8049927-2.9920044l58.4179993-73.019989l12.4729919,12.4769897
                                                L355.5090027,428.1950073z"/>
                                        </g>
                                    </g>

    <g>
                                        <g>
                                            <rect height="16" width="72.0000076" x="76.0009995" y="432"/>
                                        </g>
                                    </g>

    <g>
                                        <g>
                                            <rect height="16" width="128" x="164.0010071" y="432"/>
                                        </g>
                                    </g>
                                </svg>
                           