<svg xmlns="http://www.w3.org/2000/svg" viewBox="0 0 409.6 409.6"><defs><style>.cls-1{fill:#fff;}</style></defs><g id="Слой_2" data-name="Слой 2"><g id="Слой_1-2" data-name="Слой 1"><path d="M208.39,409.6H202c-1.49-.82-3-1.62-4.46-2.48q-81.73-47.34-163.48-94.65c-5.39-3.12-7.78-7.39-7.77-13.67q.16-93.63,0-187.26c0-6.49,2.59-10.73,8.08-13.91Q115.8,50.58,197.12,3.33c5.52-3.2,10.53-3.26,16.08,0Q294.5,50.57,376,97.62c5.65,3.26,8.16,7.68,8.14,14.28q-.18,93.24,0,186.47c0,6.89-2.74,11.19-8.46,14.49Q292,361.16,208.39,409.6ZM347.53,109.19c-1.71-1-2.84-1.73-4-2.39q-67.21-39-134.4-78c-2.9-1.69-5-1.69-7.9,0Q133.93,68,66.5,107c-1.09.64-2.14,1.36-3.55,2.25,1.22.79,2.06,1.38,3,1.89q68.21,39.23,136.39,78.51c2.36,1.36,4,1,6.15-.22q67.83-39.09,135.73-78.07C345.17,110.78,346.11,110.11,347.53,109.19ZM193.05,376.64c.09-1.26.17-1.78.17-2.31q0-79.65.07-159.31c0-2.45-1.12-3.46-3-4.53q-68.44-39.26-136.85-78.58a30.21,30.21,0,0,0-2.81-1.27V279.9c1.56-.83,2.73-1.42,3.86-2.07Q96.17,254,137.82,230c4.61-2.64,9.16-5.4,13.88-7.84a12,12,0,0,1,17.5,12.22c-.58,4.83-3.76,7.65-7.75,9.94q-47.2,27-94.36,54.13c-1.33.76-2.61,1.58-4.34,2.62ZM347.67,301.1c-1.87-1.12-3.08-1.88-4.32-2.59l-93.66-53.75a31.29,31.29,0,0,1-4.33-2.83,11.65,11.65,0,0,1-3.49-13.33c1.91-5,6.54-8.25,11.81-7.63a21.32,21.32,0,0,1,7.75,2.76q47.08,26.85,94.06,53.85c1.34.77,2.73,1.43,4.27,2.23V130.49c-1.06.51-1.79.81-2.46,1.19q-68.74,39.51-137.54,78.95c-2.53,1.44-2.61,3.23-2.61,5.54q0,78.06,0,156.11c0,1.26.12,2.51.21,4.32Z"/><path class="cls-1" d="M208.39,409.6Q292,361.21,375.66,312.86c5.72-3.3,8.48-7.6,8.46-14.49q-.25-93.24,0-186.47c0-6.6-2.49-11-8.14-14.28Q294.52,50.55,213.2,3.29c-5.55-3.22-10.56-3.16-16.08,0Q115.81,50.6,34.36,97.63c-5.49,3.18-8.09,7.42-8.08,13.91q.18,93.63,0,187.26c0,6.28,2.38,10.55,7.77,13.67q81.76,47.26,163.48,94.65c1.47.86,3,1.66,4.46,2.48H63.87a8.26,8.26,0,0,1,1.21-.85c5.9-2.9,8.7-8.15,7.41-13.93-1.23-5.55-5.94-9.15-12.32-9.25-5.05-.08-10.11,0-15.16,0H24.79v-4.76c0-10.24,0-20.49,0-30.73,0-8.12-4.81-13.24-12.16-13.17C5.54,337,.83,342.17.81,350.05c0,14.5.29,29-.13,43.5C.47,401,2.76,406.38,9.58,409.6H0V0H409.6V9.48C406.55,2.72,401.35.38,394,.58c-14.48.41-29,.1-43.47.13-7.53,0-12.7,4.83-12.77,11.76-.07,7.21,5.06,12.15,12.76,12.17,10.24,0,20.48,0,30.71,0h4.42c0,12.71-.13,24.8,0,36.88.13,9.42,10,15.07,17.88,10.08,2.49-1.59,4.06-4.64,6.05-7V345.71a12.68,12.68,0,0,1-.83-1.28c-2.8-5.86-8-8.63-13.9-7.37-5.5,1.16-9.17,6-9.25,12.3-.06,5.18,0,10.37,0,15.55v20.63h-4.72c-10.5,0-21-.09-31.49.09-7.2.12-12,5.58-11.64,12.79.27,5.83,4.25,8.71,8.77,11.18ZM24.75,24.65h4.84c10.37,0,20.74.06,31.11,0a11.67,11.67,0,0,0,12-11.76A11.67,11.67,0,0,0,60.68.73Q36.75.63,12.82.73a11.63,11.63,0,0,0-12,11.78C.75,28.87.78,45.22.84,61.58a11.26,11.26,0,0,0,6,10.15A11.78,11.78,0,0,0,24.7,61.92C24.92,49.7,24.75,37.48,24.75,24.65Z"/><path d="M9.58,409.6C2.76,406.38.47,401,.68,393.55c.42-14.49.11-29,.13-43.5,0-7.88,4.73-13.1,11.81-13.17,7.35-.07,12.12,5.05,12.16,13.17,0,10.24,0,20.49,0,30.73v4.76H45c5.05,0,10.11-.05,15.16,0,6.38.1,11.09,3.7,12.32,9.25,1.29,5.78-1.51,11-7.41,13.93a8.26,8.26,0,0,0-1.21.85Z"/><path d="M346.52,409.6c-4.52-2.47-8.5-5.35-8.77-11.18-.34-7.21,4.44-12.67,11.64-12.79,10.5-.18,21-.07,31.49-.09h4.72V364.91c0-5.18,0-10.37,0-15.55.08-6.31,3.75-11.14,9.25-12.3,5.9-1.26,11.1,1.51,13.9,7.37a12.68,12.68,0,0,0,.83,1.28v55.11l-8.78,8.78Z"/><path d="M409.6,64.59c-2,2.38-3.56,5.43-6.05,7-7.85,5-17.75-.66-17.88-10.08-.17-12.08,0-24.17,0-36.88h-4.42c-10.23,0-20.47,0-30.71,0-7.7,0-12.83-5-12.76-12.17C337.81,5.54,343,.73,350.51.71,365,.68,379.5,1,394,.58c7.37-.2,12.57,2.14,15.62,8.9Z"/><path class="cls-1" d="M400.82,409.6l8.78-8.78v8.78Z"/><path class="cls-1" d="M347.53,109.19c-1.42.92-2.36,1.59-3.36,2.16q-67.87,39-135.73,78.07c-2.16,1.25-3.79,1.58-6.15.22Q134.15,150.3,65.9,111.13c-.89-.51-1.73-1.1-3-1.89,1.41-.89,2.46-1.61,3.55-2.25Q133.9,67.91,201.25,28.8c2.9-1.69,5-1.69,7.9,0q67.14,39.11,134.4,78C344.69,107.46,345.82,108.16,347.53,109.19Z"/><path class="cls-1" d="M193.05,376.64,62.75,301.11c1.73-1,3-1.86,4.34-2.62q47.16-27.08,94.36-54.13c4-2.29,7.17-5.11,7.75-9.94a12,12,0,0,0-17.5-12.22c-4.72,2.44-9.27,5.2-13.88,7.84q-41.65,23.9-83.31,47.79c-1.13.65-2.3,1.24-3.86,2.07V130.64a30.21,30.21,0,0,1,2.81,1.27q68.43,39.28,136.85,78.58c1.86,1.07,3,2.08,3,4.53q-.12,79.66-.07,159.31C193.22,374.86,193.14,375.38,193.05,376.64Z"/><path class="cls-1" d="M347.67,301.1,217.39,376.6c-.09-1.81-.21-3.06-.21-4.32q0-78.06,0-156.11c0-2.31.08-4.1,2.61-5.54q68.83-39.36,137.54-78.95c.67-.38,1.4-.68,2.46-1.19V279.81c-1.54-.8-2.93-1.46-4.27-2.23q-47-26.94-94.06-53.85a21.32,21.32,0,0,0-7.75-2.76c-5.27-.62-9.9,2.65-11.81,7.63a11.65,11.65,0,0,0,3.49,13.33,31.29,31.29,0,0,0,4.33,2.83l93.66,53.75C344.59,299.22,345.8,300,347.67,301.1Z"/><path d="M24.75,24.65c0,12.83.17,25.05-.05,37.27A11.78,11.78,0,0,1,6.79,71.73,11.26,11.26,0,0,1,.84,61.58C.78,45.22.75,28.87.85,12.51A11.63,11.63,0,0,1,12.82.73q23.92-.1,47.86,0a11.67,11.67,0,0,1,12,12.14,11.67,11.67,0,0,1-12,11.76c-10.37.08-20.74,0-31.11,0Z"/></g></g></svg>